<?xml version="1.0" encoding="UTF-8" standalone="no"?><!DOCTYPE svg PUBLIC "-//W3C//DTD SVG 1.1//EN" "http://www.w3.org/Graphics/SVG/1.1/DTD/svg11.dtd"><svg width="100%" height="100%" viewBox="0 0 200 200" version="1.1" xmlns="http://www.w3.org/2000/svg" xmlns:xlink="http://www.w3.org/1999/xlink" xml:space="preserve" xmlns:serif="http://www.serif.com/" style="fill-rule:evenodd;clip-rule:evenodd;stroke-linejoin:round;stroke-miterlimit:2;"><g><path d="M91.275,132.383l10.838,-11.35l10.833,11.35l-0,46.784l-21.671,-0l0,-46.784Z" style="fill:#546e7a;fill-rule:nonzero;"/><path d="M73.904,121.075l15.438,-2.813l2.096,15.551l-27.5,37.85l-17.53,-12.742l27.496,-37.846Z" style="fill:#f50057;fill-rule:nonzero;"/><path d="M66.508,101.704l14.138,6.8l-7.442,13.813l-44.496,14.454l-6.696,-20.609l44.496,-14.458Z" style="fill:#d500f9;fill-rule:nonzero;"/><path d="M71.9,81.696l7.442,13.812l-14.138,6.8l-44.496,-14.458l6.696,-20.612l44.496,14.458Z" style="fill:#29b6f6;fill-rule:nonzero;"/><path d="M88.025,68.675l-2.096,15.55l-15.437,-2.812l-27.5,-37.85l17.533,-12.738l27.5,37.85Z" style="fill:#00e5ff;fill-rule:nonzero;"/><path d="M108.725,67.617l-10.838,11.35l-10.833,-11.35l0,-46.784l21.671,0l0,46.784Z" style="fill:#546e7a;fill-rule:nonzero;"/><path d="M126.092,78.929l-15.434,2.813l-2.096,-15.55l27.496,-37.85l17.534,12.737l-27.5,37.85Z" style="fill:#f50057;fill-rule:nonzero;"/><path d="M133.496,98.292l-14.142,-6.8l7.442,-13.813l44.496,-14.454l6.695,20.608l-44.491,14.459Z" style="fill:#d500f9;fill-rule:nonzero;"/><path d="M128.1,118.304l-7.442,-13.812l14.138,-6.796l44.496,14.454l-6.696,20.613l-44.496,-14.459Z" style="fill:#29b6f6;fill-rule:nonzero;"/><path d="M111.975,131.325l2.1,-15.55l15.433,2.813l27.5,37.85l-17.533,12.737l-27.5,-37.85Z" style="fill:#00e5ff;fill-rule:nonzero;"/></g></svg>