<?xml version="1.0" encoding="UTF-8" standalone="no"?><!DOCTYPE svg PUBLIC "-//W3C//DTD SVG 1.1//EN" "http://www.w3.org/Graphics/SVG/1.1/DTD/svg11.dtd"><svg width="100%" height="100%" viewBox="0 0 1250 1250" version="1.1" xmlns="http://www.w3.org/2000/svg" xmlns:xlink="http://www.w3.org/1999/xlink" xml:space="preserve" xmlns:serif="http://www.serif.com/" style="fill-rule:evenodd;clip-rule:evenodd;stroke-linejoin:round;stroke-miterlimit:2;"><rect id="Artboard1" x="0" y="0" width="1250" height="1250" style="fill:none;"/><g id="Artboard11" serif:id="Artboard1"><g><rect x="34.551" y="42.373" width="1180.9" height="1165.26" style="fill:#fff;fill-opacity:0;"/><path d="M1198.91,624.776c-0,320.48 -261.479,581.959 -582.408,581.959c-320.476,-0 -581.954,-261.479 -581.954,-581.959c-0,-320.925 261.478,-582.403 581.954,-582.403c320.929,-0 582.408,261.478 582.408,582.403Zm-748.232,-206.948l-0,414.345c-0,26.368 29.947,39.33 55.423,23.686l337.465,-200.244c23.691,-13.854 22.794,-46.483 0,-60.338l-337.465,-200.691c-23.688,-14.303 -55.423,-3.129 -55.423,23.242Z" style="fill:#fff;fill-opacity:0.85;fill-rule:nonzero;"/></g></g></svg>