<?xml version="1.0" encoding="UTF-8" standalone="no"?><!DOCTYPE svg PUBLIC "-//W3C//DTD SVG 1.1//EN" "http://www.w3.org/Graphics/SVG/1.1/DTD/svg11.dtd"><svg width="100%" height="100%" viewBox="0 0 1250 1250" version="1.1" xmlns="http://www.w3.org/2000/svg" xmlns:xlink="http://www.w3.org/1999/xlink" xml:space="preserve" xmlns:serif="http://www.serif.com/" style="fill-rule:evenodd;clip-rule:evenodd;stroke-linejoin:round;stroke-miterlimit:2;"><rect id="Artboard1" x="0" y="0" width="1250" height="1250" style="fill:none;"/><g id="Artboard11" serif:id="Artboard1"><g><rect x="33.645" y="41.479" width="1182.71" height="1167.04" style="fill:#fff;fill-opacity:0;"/><path d="M1199.79,624.775c0,320.973 -261.88,582.852 -583.301,582.852c-320.968,0 -582.847,-261.879 -582.847,-582.852c-0,-321.417 261.879,-583.296 582.847,-583.296c321.421,-0 583.301,261.879 583.301,583.296Zm-748.484,-229.199c-28.203,-0 -40.737,15.22 -40.737,37.155l0,383.193c0,21.934 12.534,37.158 40.737,37.158l58.642,-0c28.205,-0 40.738,-15.224 40.738,-37.158l-0,-383.193c-0,-21.935 -12.533,-37.155 -40.738,-37.155l-58.642,-0Zm272.623,-0c-28.201,-0 -41.183,15.22 -41.183,37.155l0,383.193c0,21.934 12.982,37.158 41.183,37.158l58.643,-0c27.307,-0 40.289,-15.224 40.289,-37.158l0,-383.193c0,-21.935 -12.982,-37.155 -40.289,-37.155l-58.643,-0Z" style="fill:#fff;fill-rule:nonzero;"/></g></g></svg>